Coordinates
version=1
nRows=26
nColumns=11
inDegrees=yes

Units are S.I. units (second, meters, Newtons, ...)
If the header above contains a line with 'inDegrees', this indicates whether rotational values are in degrees (yes) or radians (no).

endheader
time	pelvis_tilt	pelvis_tx	pelvis_ty	hip_flexion_l	hip_flexion_r	knee_angle_l	knee_angle_r	ankle_angle_l	ankle_angle_r	lumbar_extension
      1.65000000	    -96.31721793	      1.84688394	      0.80205453	    111.96236692	     81.57399815	     16.42225348	      4.34613125	    176.42912927	   -168.42715111	    103.44690673
      1.66000000	    -96.12686272	      1.83477607	      0.80077525	    112.47433028	     81.53665366	     16.50244060	      4.53679561	    177.38034740	   -168.32528640	    103.03619725
      1.67000000	    -95.69540990	      1.82264252	      0.79954571	    112.76338137	     81.36929978	     16.60797636	      4.73667333	    178.36930073	   -168.31506437	    102.37272014
      1.68000000	    -95.21429936	      1.81019813	      0.79840419	    113.03041543	     81.24596525	     16.66790016	      5.07274152	    179.46561490	   -168.33942264	    101.62275950
      1.69000000	    -94.67722076	      1.79747259	      0.79718092	    113.23486934	     81.22540903	     16.76424698	      5.37338018	    180.64272896	   -168.26886995	    100.81118314
      1.70000000	    -94.39693746	      1.78471864	      0.79626610	    113.61345171	     81.46319632	     16.90342310	      5.84099769	    182.11632715	   -166.77357713	    100.33121382
      1.71000000	    -94.61896625	      1.77197864	      0.79607553	    114.37605605	     81.97362038	     17.09995734	      6.85877175	    183.96177049	   -167.03921518	    100.49234584
      1.72000000	    -95.03589179	      1.75902446	      0.79643553	    115.25532033	     82.33315138	     17.32460403	      8.51019983	    186.22411190	   -167.97485069	    100.86652975
      1.73000000	    -95.08532420	      1.74614524	      0.79705623	    115.68710501	     82.37101791	     17.68808326	     10.00802377	    188.71796035	   -167.93327018	    100.82566649
      1.74000000	    -95.17479770	      1.73309461	      0.79780485	    116.00936742	     82.72526263	     18.23200770	     11.02478263	    191.47947201	   -167.75421569	    100.80716655
      1.75000000	    -95.17811647	      1.72032427	      0.79866297	    116.06448948	     83.13983955	     18.99848088	     11.79176807	    194.53073406	   -167.98951300	    100.71395778
      1.76000000	    -95.13416583	      1.70745286	      0.79942357	    115.91029061	     83.57339105	     19.93234004	     12.44861436	    197.67906455	   -168.29890731	    100.57369063
      1.77000000	    -95.13978566	      1.69436154	      0.80001731	    115.73745659	     84.09738288	     20.87181687	     13.03352597	    200.91099433	   -168.86853345	    100.46869231
      1.78000000	    -95.22634265	      1.68125207	      0.80074195	    115.59198667	     84.77039212	     21.78099934	     13.53958150	    204.20309789	   -169.71687489	    100.47486137
      1.79000000	    -95.32178029	      1.66816334	      0.80150938	    115.34775540	     85.52780625	     22.80734545	     13.93974701	    207.25833767	   -170.51683525	    100.50273812
      1.80000000	    -95.51536563	      1.65515265	      0.80239895	    115.11154998	     86.42778077	     23.92471872	     14.27248574	    209.77267716	   -171.33133351	    100.63156287
      1.81000000	    -95.72836038	      1.64222936	      0.80337170	    114.69096102	     87.45111000	     25.36823086	     14.38629666	    212.27136792	   -171.99715455	    100.79235389
      1.82000000	    -96.05397440	      1.62927566	      0.80448535	    114.19181417	     88.68991625	     27.08668325	     14.29634749	    213.99457427	   -172.56159307	    101.07423435
      1.83000000	    -96.36427505	      1.61656696	      0.80569364	    113.52270070	     89.97531457	     28.90758389	     14.06201839	    215.19497557	   -172.96842878	    101.34409452
      1.84000000	    -96.67262329	      1.60433441	      0.80710087	    112.68252353	     91.29146242	     30.87502741	     13.68653185	    214.75781647	   -173.23561099	    101.65563600
      1.85000000	    -96.74664643	      1.59250457	      0.80855736	    111.51057921	     92.41591857	     32.81549207	     13.20392866	    212.72126571	   -173.43434077	    101.71107658
      1.86000000	    -96.74174628	      1.58100918	      0.81012649	    110.11747119	     93.48094529	     34.73108670	     12.66900367	    210.27330659	   -173.57912739	    101.69308644
      1.87000000	    -96.65316884	      1.56977914	      0.81178609	    108.55290680	     94.45904173	     36.52797825	     12.08729143	    208.18452504	   -173.63760643	    101.58946881
      1.88000000	    -96.46888667	      1.55893312	      0.81341176	    106.77703745	     95.32597526	     38.23406166	     11.52310806	    206.47374777	   -173.70333800	    101.41801682
      1.89000000	    -96.22528392	      1.54851209	      0.81501779	    104.85852942	     96.11682806	     39.87474928	     10.93742743	    204.80007976	   -173.69948330	    101.20530929
      1.90000000	    -96.00041027	      1.53837665	      0.81657082	    102.88520564	     96.89284948	     41.31130342	     10.35503148	    203.23718458	   -173.66223647	    101.03644586
